<?xml version="1.0" encoding="UTF-8"?>
<!DOCTYPE svg PUBLIC "-//W3C//DTD SVG 1.1//EN" "http://www.w3.org/Graphics/SVG/1.1/DTD/svg11.dtd">
<svg xmlns="http://www.w3.org/2000/svg" version="1.1" width="600px" height="348px" style="shape-rendering:geometricPrecision; text-rendering:geometricPrecision; image-rendering:optimizeQuality; fill-rule:evenodd; clip-rule:evenodd" xmlns:xlink="http://www.w3.org/1999/xlink">
<g><path style="opacity:1" fill="#fefefe" d="M -0.5,-0.5 C 199.5,-0.5 399.5,-0.5 599.5,-0.5C 599.5,115.5 599.5,231.5 599.5,347.5C 399.5,347.5 199.5,347.5 -0.5,347.5C -0.5,231.5 -0.5,115.5 -0.5,-0.5 Z"/></g>
<g><path style="opacity:1" fill="#f0e8f4" d="M 329.5,49.5 C 327.847,49.6596 326.514,50.3263 325.5,51.5C 322.5,48.8333 319.5,46.1667 316.5,43.5C 309.202,35.7017 301.702,28.0351 294,20.5C 290.903,28.8872 288.737,37.5539 287.5,46.5C 284.035,56.6914 281.035,67.0247 278.5,77.5C 278.631,76.6236 278.298,75.9569 277.5,75.5C 276.583,76.1272 275.583,76.4606 274.5,76.5C 279.022,57.0843 283.522,37.751 288,18.5C 269.298,37.0347 250.798,55.7014 232.5,74.5C 222.167,84.5 211.833,94.5 201.5,104.5C 201.158,103.662 200.492,103.328 199.5,103.5C 206.889,95.7804 214.222,88.1137 221.5,80.5C 244.866,57.4667 268.2,34.4667 291.5,11.5C 304.44,23.7732 317.107,36.4398 329.5,49.5 Z"/></g>
<g><path style="opacity:1" fill="#fefdfe" d="M 247.5,162.5 C 246.71,163.609 246.21,164.942 246,166.5C 245.439,167.022 244.772,167.355 244,167.5C 219.093,159.531 194.26,151.364 169.5,143C 192.866,121.136 215.199,98.6357 236.5,75.5C 251.028,62.4769 265.194,48.8103 279,34.5C 268.523,77.0743 258.023,119.741 247.5,162.5 Z"/></g>
<g><path style="opacity:1" fill="#994ebe" d="M 287.5,46.5 C 290.598,46.4125 290.932,46.9125 288.5,48C 289.833,48.3333 291.167,48.6667 292.5,49C 291.833,49.3333 291.167,49.6667 290.5,50C 291.833,50.3333 293.167,50.6667 294.5,51C 293.833,51.3333 293.167,51.6667 292.5,52C 294.506,52.0826 295.506,52.5826 295.5,53.5C 287.873,52.7687 285.207,55.9353 287.5,63C 297.581,63.5538 297.914,65.3872 288.5,68.5C 288.887,69.7199 289.72,70.3865 291,70.5C 295.328,70.5538 298.162,68.5538 299.5,64.5C 298.96,63.2519 298.293,62.0852 297.5,61C 295.1,60.8142 292.766,60.3142 290.5,59.5C 291.668,57.7826 293.335,57.1159 295.5,57.5C 295.5,56.5 295.5,55.5 295.5,54.5C 298.598,54.4125 298.932,54.9125 296.5,56C 298.066,56.765 299.399,56.5983 300.5,55.5C 301.935,57.5976 303.102,59.9309 304,62.5C 305.33,63.5822 306.83,64.2488 308.5,64.5C 308.082,65.2216 307.416,65.7216 306.5,66C 307.833,66.3333 309.167,66.6667 310.5,67C 309.833,67.3333 309.167,67.6667 308.5,68C 309.833,68.3333 311.167,68.6667 312.5,69C 311.833,69.3333 311.167,69.6667 310.5,70C 311.833,70.3333 313.167,70.6667 314.5,71C 313.833,71.3333 313.167,71.6667 312.5,72C 313.833,72.3333 315.167,72.6667 316.5,73C 315.833,73.3333 315.167,73.6667 314.5,74C 315.833,74.3333 317.167,74.6667 318.5,75C 317.833,75.3333 317.167,75.6667 316.5,76C 317.833,76.3333 319.167,76.6667 320.5,77C 319.833,77.3333 319.167,77.6667 318.5,78C 319.833,78.3333 321.167,78.6667 322.5,79C 321.833,79.3333 321.167,79.6667 320.5,80C 321.833,80.3333 323.167,80.6667 324.5,81C 323.833,81.3333 323.167,81.6667 322.5,82C 323.833,82.3333 325.167,82.6667 326.5,83C 325.833,83.3333 325.167,83.6667 324.5,84C 325.833,84.3333 327.167,84.6667 328.5,85C 327.833,85.3333 327.167,85.6667 326.5,86C 327.833,86.3333 329.167,86.6667 330.5,87C 329.833,87.3333 329.167,87.6667 328.5,88C 329.833,88.3333 331.167,88.6667 332.5,89C 331.833,89.3333 331.167,89.6667 330.5,90C 331.833,90.3333 333.167,90.6667 334.5,91C 333.833,91.3333 333.167,91.6667 332.5,92C 333.833,92.3333 335.167,92.6667 336.5,93C 335.833,93.3333 335.167,93.6667 334.5,94C 335.833,94.3333 337.167,94.6667 338.5,95C 337.833,95.3333 337.167,95.6667 336.5,96C 337.833,96.3333 339.167,96.6667 340.5,97C 339.833,97.3333 339.167,97.6667 338.5,98C 339.833,98.3333 341.167,98.6667 342.5,99C 341.833,99.3333 341.167,99.6667 340.5,100C 341.833,100.333 343.167,100.667 344.5,101C 343.833,101.333 343.167,101.667 342.5,102C 343.833,102.333 345.167,102.667 346.5,103C 345.833,103.333 345.167,103.667 344.5,104C 345.833,104.333 347.167,104.667 348.5,105C 347.833,105.333 347.167,105.667 346.5,106C 347.833,106.333 349.167,106.667 350.5,107C 349.833,107.333 349.167,107.667 348.5,108C 349.833,108.333 351.167,108.667 352.5,109C 351.833,109.333 351.167,109.667 350.5,110C 351.833,110.333 353.167,110.667 354.5,111C 353.833,111.333 353.167,111.667 352.5,112C 353.833,112.333 355.167,112.667 356.5,113C 355.833,113.333 355.167,113.667 354.5,114C 355.833,114.333 357.167,114.667 358.5,115C 357.833,115.333 357.167,115.667 356.5,116C 357.833,116.333 359.167,116.667 360.5,117C 359.833,117.333 359.167,117.667 358.5,118C 359.833,118.333 361.167,118.667 362.5,119C 361.833,119.333 361.167,119.667 360.5,120C 361.833,120.333 363.167,120.667 364.5,121C 363.833,121.333 363.167,121.667 362.5,122C 363.833,122.333 365.167,122.667 366.5,123C 365.833,123.333 365.167,123.667 364.5,124C 365.833,124.333 367.167,124.667 368.5,125C 367.833,125.333 367.167,125.667 366.5,126C 367.833,126.333 369.167,126.667 370.5,127C 369.833,127.333 369.167,127.667 368.5,128C 369.833,128.333 371.167,128.667 372.5,129C 371.833,129.333 371.167,129.667 370.5,130C 371.833,130.333 373.167,130.667 374.5,131C 373.833,131.333 373.167,131.667 372.5,132C 373.833,132.333 375.167,132.667 376.5,133C 375.833,133.333 375.167,133.667 374.5,134C 375.833,134.333 377.167,134.667 378.5,135C 377.833,135.333 377.167,135.667 376.5,136C 377.833,136.333 379.167,136.667 380.5,137C 379.833,137.333 379.167,137.667 378.5,138C 379.833,138.333 381.167,138.667 382.5,139C 381.833,139.333 381.167,139.667 380.5,140C 381.833,140.333 383.167,140.667 384.5,141C 383.833,141.333 383.167,141.667 382.5,142C 383.833,142.333 385.167,142.667 386.5,143C 385.833,143.333 385.167,143.667 384.5,144C 385.833,144.333 387.167,144.667 388.5,145C 387.833,145.333 387.167,145.667 386.5,146C 388.058,146.21 389.391,146.71 390.5,147.5C 378.923,149.819 367.256,151.819 355.5,153.5C 353.146,153.162 350.813,152.662 348.5,152C 349.167,151.667 349.833,151.333 350.5,151C 349.167,150.667 347.833,150.333 346.5,150C 347.167,149.667 347.833,149.333 348.5,149C 346.774,147.47 344.774,146.47 342.5,146C 343.167,145.667 343.833,145.333 344.5,145C 343.167,144.667 341.833,144.333 340.5,144C 341.167,143.667 341.833,143.333 342.5,143C 341.167,142.667 339.833,142.333 338.5,142C 339.167,141.667 339.833,141.333 340.5,141C 338.774,139.47 336.774,138.47 334.5,138C 335.167,137.667 335.833,137.333 336.5,137C 335.167,136.667 333.833,136.333 332.5,136C 333.167,135.667 333.833,135.333 334.5,135C 333.167,134.667 331.833,134.333 330.5,134C 331.167,133.667 331.833,133.333 332.5,133C 330.774,131.47 328.774,130.47 326.5,130C 327.167,129.667 327.833,129.333 328.5,129C 327.167,128.667 325.833,128.333 324.5,128C 325.167,127.667 325.833,127.333 326.5,127C 325.167,126.667 323.833,126.333 322.5,126C 323.167,125.667 323.833,125.333 324.5,125C 322.774,123.47 320.774,122.47 318.5,122C 319.167,121.667 319.833,121.333 320.5,121C 319.167,120.667 317.833,120.333 316.5,120C 317.167,119.667 317.833,119.333 318.5,119C 317.167,118.667 315.833,118.333 314.5,118C 315.167,117.667 315.833,117.333 316.5,117C 314.774,115.47 312.774,114.47 310.5,114C 311.167,113.667 311.833,113.333 312.5,113C 311.167,112.667 309.833,112.333 308.5,112C 309.167,111.667 309.833,111.333 310.5,111C 309.167,110.667 307.833,110.333 306.5,110C 307.167,109.667 307.833,109.333 308.5,109C 306.774,107.47 304.774,106.47 302.5,106C 303.167,105.667 303.833,105.333 304.5,105C 303.167,104.667 301.833,104.333 300.5,104C 301.167,103.667 301.833,103.333 302.5,103C 301.167,102.667 299.833,102.333 298.5,102C 299.167,101.667 299.833,101.333 300.5,101C 298.774,99.4702 296.774,98.4702 294.5,98C 295.167,97.6667 295.833,97.3333 296.5,97C 295.167,96.6667 293.833,96.3333 292.5,96C 293.167,95.6667 293.833,95.3333 294.5,95C 293.167,94.6667 291.833,94.3333 290.5,94C 291.167,93.6667 291.833,93.3333 292.5,93C 290.774,91.4702 288.774,90.4702 286.5,90C 287.167,89.6667 287.833,89.3333 288.5,89C 287.167,88.6667 285.833,88.3333 284.5,88C 285.167,87.6667 285.833,87.3333 286.5,87C 285.167,86.6667 283.833,86.3333 282.5,86C 283.167,85.6667 283.833,85.3333 284.5,85C 282.563,83.5382 280.563,82.3715 278.5,81.5C 278.5,80.1667 278.5,78.8333 278.5,77.5C 281.035,67.0247 284.035,56.6914 287.5,46.5 Z"/></g>
<g><path style="opacity:1" fill="#f7f1fa" d="M 329.5,49.5 C 360.86,81.4552 393.193,113.622 426.5,146C 412.965,159.368 399.631,172.868 386.5,186.5C 358.167,214.167 330.167,242.167 302.5,270.5C 299.036,273.462 295.703,276.629 292.5,280C 291.833,280.667 291.167,280.667 290.5,280C 245.833,235.333 201.167,190.667 156.5,146C 171.447,132.218 185.78,118.052 199.5,103.5C 200.492,103.328 201.158,103.662 201.5,104.5C 188.369,118.132 175.035,131.632 161.5,145C 190.557,155.408 219.891,164.908 249.5,173.5C 249.7,170.37 250.366,167.37 251.5,164.5C 258.57,134.881 266.237,105.547 274.5,76.5C 275.583,76.4606 276.583,76.1272 277.5,75.5C 278.298,75.9569 278.631,76.6236 278.5,77.5C 278.5,78.8333 278.5,80.1667 278.5,81.5C 275.296,90.1496 272.963,99.1496 271.5,108.5C 265.565,128.904 260.232,149.571 255.5,170.5C 277.236,167.155 298.902,163.489 320.5,159.5C 332.357,157.857 344.024,155.857 355.5,153.5C 367.256,151.819 378.923,149.819 390.5,147.5C 399.314,146.753 407.981,145.253 416.5,143C 387.632,113.965 358.632,85.1318 329.5,56.5C 328.167,54.8333 326.833,53.1667 325.5,51.5C 326.514,50.3263 327.847,49.6596 329.5,49.5 Z"/></g>
<g><path style="opacity:1" fill="#9549bb" d="M 388.5,189.5 C 387.449,188.778 386.782,187.778 386.5,186.5C 399.631,172.868 412.965,159.368 426.5,146C 393.193,113.622 360.86,81.4552 329.5,49.5C 317.107,36.4398 304.44,23.7732 291.5,11.5C 268.2,34.4667 244.866,57.4667 221.5,80.5C 219.833,80.5 218.167,80.5 216.5,80.5C 240.965,55.5347 265.632,30.7014 290.5,6C 291.167,5.33333 291.833,5.33333 292.5,6C 339.167,52.6667 385.833,99.3333 432.5,146C 417.965,160.702 403.299,175.202 388.5,189.5 Z"/></g>
<g><path style="opacity:1" fill="#9554b5" d="M 316.5,43.5 C 319.5,46.1667 322.5,48.8333 325.5,51.5C 326.833,53.1667 328.167,54.8333 329.5,56.5C 325.307,59.8165 320.974,60.1498 316.5,57.5C 315.007,55.6364 314.34,53.4697 314.5,51C 314.409,48.2248 315.076,45.7248 316.5,43.5 Z"/></g>
<g><path style="opacity:1" fill="#9455b3" d="M 308.5,64.5 C 306.83,64.2488 305.33,63.5822 304,62.5C 303.102,59.9309 301.935,57.5976 300.5,55.5C 300.276,53.2133 299.609,51.0466 298.5,49C 299.076,47.2856 300.243,46.1189 302,45.5C 302.523,47.2226 303.523,48.556 305,49.5C 306.416,48.4267 307.75,48.4267 309,49.5C 309.688,50.3317 309.521,50.9984 308.5,51.5C 304.143,53.1223 303.81,55.789 307.5,59.5C 309.006,60.7472 310.506,60.7472 312,59.5C 312.692,60.0253 313.192,60.6919 313.5,61.5C 312.2,63.0512 310.533,64.0512 308.5,64.5 Z"/></g>
<g><path style="opacity:1" fill="#9657b5" d="M 295.5,53.5 C 295.5,53.8333 295.5,54.1667 295.5,54.5C 295.5,55.5 295.5,56.5 295.5,57.5C 293.335,57.1159 291.668,57.7826 290.5,59.5C 292.766,60.3142 295.1,60.8142 297.5,61C 298.293,62.0852 298.96,63.2519 299.5,64.5C 298.162,68.5538 295.328,70.5538 291,70.5C 289.72,70.3865 288.887,69.7199 288.5,68.5C 297.914,65.3872 297.581,63.5538 287.5,63C 285.207,55.9353 287.873,52.7687 295.5,53.5 Z"/></g>
<g><path style="opacity:1" fill="#9649bc" d="M 316.5,43.5 C 315.076,45.7248 314.409,48.2248 314.5,51C 314.34,53.4697 315.007,55.6364 316.5,57.5C 320.974,60.1498 325.307,59.8165 329.5,56.5C 358.632,85.1318 387.632,113.965 416.5,143C 407.981,145.253 399.314,146.753 390.5,147.5C 389.391,146.71 388.058,146.21 386.5,146C 387.167,145.667 387.833,145.333 388.5,145C 387.167,144.667 385.833,144.333 384.5,144C 385.167,143.667 385.833,143.333 386.5,143C 385.167,142.667 383.833,142.333 382.5,142C 383.167,141.667 383.833,141.333 384.5,141C 383.167,140.667 381.833,140.333 380.5,140C 381.167,139.667 381.833,139.333 382.5,139C 381.167,138.667 379.833,138.333 378.5,138C 379.167,137.667 379.833,137.333 380.5,137C 379.167,136.667 377.833,136.333 376.5,136C 377.167,135.667 377.833,135.333 378.5,135C 377.167,134.667 375.833,134.333 374.5,134C 375.167,133.667 375.833,133.333 376.5,133C 375.167,132.667 373.833,132.333 372.5,132C 373.167,131.667 373.833,131.333 374.5,131C 373.167,130.667 371.833,130.333 370.5,130C 371.167,129.667 371.833,129.333 372.5,129C 371.167,128.667 369.833,128.333 368.5,128C 369.167,127.667 369.833,127.333 370.5,127C 369.167,126.667 367.833,126.333 366.5,126C 367.167,125.667 367.833,125.333 368.5,125C 367.167,124.667 365.833,124.333 364.5,124C 365.167,123.667 365.833,123.333 366.5,123C 365.167,122.667 363.833,122.333 362.5,122C 363.167,121.667 363.833,121.333 364.5,121C 363.167,120.667 361.833,120.333 360.5,120C 361.167,119.667 361.833,119.333 362.5,119C 361.167,118.667 359.833,118.333 358.5,118C 359.167,117.667 359.833,117.333 360.5,117C 359.167,116.667 357.833,116.333 356.5,116C 357.167,115.667 357.833,115.333 358.5,115C 357.167,114.667 355.833,114.333 354.5,114C 355.167,113.667 355.833,113.333 356.5,113C 355.167,112.667 353.833,112.333 352.5,112C 353.167,111.667 353.833,111.333 354.5,111C 353.167,110.667 351.833,110.333 350.5,110C 351.167,109.667 351.833,109.333 352.5,109C 351.167,108.667 349.833,108.333 348.5,108C 349.167,107.667 349.833,107.333 350.5,107C 349.167,106.667 347.833,106.333 346.5,106C 347.167,105.667 347.833,105.333 348.5,105C 347.167,104.667 345.833,104.333 344.5,104C 345.167,103.667 345.833,103.333 346.5,103C 345.167,102.667 343.833,102.333 342.5,102C 343.167,101.667 343.833,101.333 344.5,101C 343.167,100.667 341.833,100.333 340.5,100C 341.167,99.6667 341.833,99.3333 342.5,99C 341.167,98.6667 339.833,98.3333 338.5,98C 339.167,97.6667 339.833,97.3333 340.5,97C 339.167,96.6667 337.833,96.3333 336.5,96C 337.167,95.6667 337.833,95.3333 338.5,95C 337.167,94.6667 335.833,94.3333 334.5,94C 335.167,93.6667 335.833,93.3333 336.5,93C 335.167,92.6667 333.833,92.3333 332.5,92C 333.167,91.6667 333.833,91.3333 334.5,91C 333.167,90.6667 331.833,90.3333 330.5,90C 331.167,89.6667 331.833,89.3333 332.5,89C 331.167,88.6667 329.833,88.3333 328.5,88C 329.167,87.6667 329.833,87.3333 330.5,87C 329.167,86.6667 327.833,86.3333 326.5,86C 327.167,85.6667 327.833,85.3333 328.5,85C 327.167,84.6667 325.833,84.3333 324.5,84C 325.167,83.6667 325.833,83.3333 326.5,83C 325.167,82.6667 323.833,82.3333 322.5,82C 323.167,81.6667 323.833,81.3333 324.5,81C 323.167,80.6667 321.833,80.3333 320.5,80C 321.167,79.6667 321.833,79.3333 322.5,79C 321.167,78.6667 319.833,78.3333 318.5,78C 319.167,77.6667 319.833,77.3333 320.5,77C 319.167,76.6667 317.833,76.3333 316.5,76C 317.167,75.6667 317.833,75.3333 318.5,75C 317.167,74.6667 315.833,74.3333 314.5,74C 315.167,73.6667 315.833,73.3333 316.5,73C 315.167,72.6667 313.833,72.3333 312.5,72C 313.167,71.6667 313.833,71.3333 314.5,71C 313.167,70.6667 311.833,70.3333 310.5,70C 311.167,69.6667 311.833,69.3333 312.5,69C 311.167,68.6667 309.833,68.3333 308.5,68C 309.167,67.6667 309.833,67.3333 310.5,67C 309.167,66.6667 307.833,66.3333 306.5,66C 307.416,65.7216 308.082,65.2216 308.5,64.5C 310.533,64.0512 312.2,63.0512 313.5,61.5C 313.192,60.6919 312.692,60.0253 312,59.5C 310.506,60.7472 309.006,60.7472 307.5,59.5C 303.81,55.789 304.143,53.1223 308.5,51.5C 309.521,50.9984 309.688,50.3317 309,49.5C 307.75,48.4267 306.416,48.4267 305,49.5C 303.523,48.556 302.523,47.2226 302,45.5C 300.243,46.1189 299.076,47.2856 298.5,49C 299.609,51.0466 300.276,53.2133 300.5,55.5C 299.399,56.5983 298.066,56.765 296.5,56C 298.932,54.9125 298.598,54.4125 295.5,54.5C 295.5,54.1667 295.5,53.8333 295.5,53.5C 295.506,52.5826 294.506,52.0826 292.5,52C 293.167,51.6667 293.833,51.3333 294.5,51C 293.167,50.6667 291.833,50.3333 290.5,50C 291.167,49.6667 291.833,49.3333 292.5,49C 291.167,48.6667 289.833,48.3333 288.5,48C 290.932,46.9125 290.598,46.4125 287.5,46.5C 288.737,37.5539 290.903,28.8872 294,20.5C 301.702,28.0351 309.202,35.7017 316.5,43.5 Z"/></g>
<g><path style="opacity:1" fill="#a45fc5" d="M 274.5,76.5 C 266.237,105.547 258.57,134.881 251.5,164.5C 250.533,163.194 249.199,162.527 247.5,162.5C 258.023,119.741 268.523,77.0743 279,34.5C 265.194,48.8103 251.028,62.4769 236.5,75.5C 235.126,75.2079 233.793,74.8746 232.5,74.5C 250.798,55.7014 269.298,37.0347 288,18.5C 283.522,37.751 279.022,57.0843 274.5,76.5 Z"/></g>
<g><path style="opacity:1" fill="#9e54c2" d="M 278.5,81.5 C 280.563,82.3715 282.563,83.5382 284.5,85C 283.833,85.3333 283.167,85.6667 282.5,86C 283.833,86.3333 285.167,86.6667 286.5,87C 285.833,87.3333 285.167,87.6667 284.5,88C 285.833,88.3333 287.167,88.6667 288.5,89C 287.833,89.3333 287.167,89.6667 286.5,90C 288.774,90.4702 290.774,91.4702 292.5,93C 291.833,93.3333 291.167,93.6667 290.5,94C 291.833,94.3333 293.167,94.6667 294.5,95C 293.833,95.3333 293.167,95.6667 292.5,96C 293.833,96.3333 295.167,96.6667 296.5,97C 295.833,97.3333 295.167,97.6667 294.5,98C 296.774,98.4702 298.774,99.4702 300.5,101C 299.833,101.333 299.167,101.667 298.5,102C 299.833,102.333 301.167,102.667 302.5,103C 301.833,103.333 301.167,103.667 300.5,104C 301.833,104.333 303.167,104.667 304.5,105C 303.833,105.333 303.167,105.667 302.5,106C 304.774,106.47 306.774,107.47 308.5,109C 307.833,109.333 307.167,109.667 306.5,110C 307.833,110.333 309.167,110.667 310.5,111C 309.833,111.333 309.167,111.667 308.5,112C 309.833,112.333 311.167,112.667 312.5,113C 311.833,113.333 311.167,113.667 310.5,114C 312.774,114.47 314.774,115.47 316.5,117C 315.833,117.333 315.167,117.667 314.5,118C 315.833,118.333 317.167,118.667 318.5,119C 317.833,119.333 317.167,119.667 316.5,120C 317.833,120.333 319.167,120.667 320.5,121C 319.833,121.333 319.167,121.667 318.5,122C 320.774,122.47 322.774,123.47 324.5,125C 323.833,125.333 323.167,125.667 322.5,126C 323.833,126.333 325.167,126.667 326.5,127C 325.833,127.333 325.167,127.667 324.5,128C 325.833,128.333 327.167,128.667 328.5,129C 327.833,129.333 327.167,129.667 326.5,130C 328.774,130.47 330.774,131.47 332.5,133C 331.833,133.333 331.167,133.667 330.5,134C 331.833,134.333 333.167,134.667 334.5,135C 333.833,135.333 333.167,135.667 332.5,136C 333.833,136.333 335.167,136.667 336.5,137C 335.833,137.333 335.167,137.667 334.5,138C 336.774,138.47 338.774,139.47 340.5,141C 339.833,141.333 339.167,141.667 338.5,142C 339.833,142.333 341.167,142.667 342.5,143C 341.833,143.333 341.167,143.667 340.5,144C 341.833,144.333 343.167,144.667 344.5,145C 343.833,145.333 343.167,145.667 342.5,146C 344.774,146.47 346.774,147.47 348.5,149C 347.833,149.333 347.167,149.667 346.5,150C 347.833,150.333 349.167,150.667 350.5,151C 349.833,151.333 349.167,151.667 348.5,152C 350.813,152.662 353.146,153.162 355.5,153.5C 344.024,155.857 332.357,157.857 320.5,159.5C 319.391,158.71 318.058,158.21 316.5,158C 317.833,157.667 319.167,157.333 320.5,157C 316.5,154.667 312.5,152.333 308.5,150C 309.833,149.667 311.167,149.333 312.5,149C 308.5,146.667 304.5,144.333 300.5,142C 301.833,141.667 303.167,141.333 304.5,141C 300.5,138.667 296.5,136.333 292.5,134C 293.833,133.667 295.167,133.333 296.5,133C 292.5,130.667 288.5,128.333 284.5,126C 285.833,125.667 287.167,125.333 288.5,125C 284.5,122.667 280.5,120.333 276.5,118C 281.721,117.458 281.721,116.624 276.5,115.5C 273.653,113.43 271.986,111.097 271.5,108.5C 272.963,99.1496 275.296,90.1496 278.5,81.5 Z"/></g>
<g><path style="opacity:1" fill="#a35bc6" d="M 271.5,108.5 C 271.986,111.097 273.653,113.43 276.5,115.5C 281.721,116.624 281.721,117.458 276.5,118C 280.5,120.333 284.5,122.667 288.5,125C 287.167,125.333 285.833,125.667 284.5,126C 288.5,128.333 292.5,130.667 296.5,133C 295.167,133.333 293.833,133.667 292.5,134C 296.5,136.333 300.5,138.667 304.5,141C 303.167,141.333 301.833,141.667 300.5,142C 304.5,144.333 308.5,146.667 312.5,149C 311.167,149.333 309.833,149.667 308.5,150C 312.5,152.333 316.5,154.667 320.5,157C 319.167,157.333 317.833,157.667 316.5,158C 318.058,158.21 319.391,158.71 320.5,159.5C 298.902,163.489 277.236,167.155 255.5,170.5C 260.232,149.571 265.565,128.904 271.5,108.5 Z"/></g>
<g><path style="opacity:1" fill="#b06fcf" d="M 216.5,80.5 C 218.167,80.5 219.833,80.5 221.5,80.5C 214.222,88.1137 206.889,95.7804 199.5,103.5C 185.78,118.052 171.447,132.218 156.5,146C 201.167,190.667 245.833,235.333 290.5,280C 291.167,280.667 291.833,280.667 292.5,280C 295.703,276.629 299.036,273.462 302.5,270.5C 304.167,270.5 305.833,270.5 307.5,270.5C 302.494,276.686 296.827,281.853 290.5,286C 243.833,239.333 197.167,192.667 150.5,146C 172.395,123.938 194.395,102.105 216.5,80.5 Z"/></g>
<g><path style="opacity:1" fill="#af70ce" d="M 232.5,74.5 C 233.793,74.8746 235.126,75.2079 236.5,75.5C 215.199,98.6357 192.866,121.136 169.5,143C 194.26,151.364 219.093,159.531 244,167.5C 244.772,167.355 245.439,167.022 246,166.5C 246.21,164.942 246.71,163.609 247.5,162.5C 249.199,162.527 250.533,163.194 251.5,164.5C 250.366,167.37 249.7,170.37 249.5,173.5C 219.891,164.908 190.557,155.408 161.5,145C 175.035,131.632 188.369,118.132 201.5,104.5C 211.833,94.5 222.167,84.5 232.5,74.5 Z"/></g>
<g><path style="opacity:1" fill="#b375d2" d="M 164.5,150.5 C 164.735,149.903 165.235,149.57 166,149.5C 193.546,158.427 221.046,167.427 248.5,176.5C 262.434,208.152 275.267,240.152 287,272.5C 246.299,231.632 205.465,190.965 164.5,150.5 Z"/></g>
<g><path style="opacity:1" fill="#fdfcfe" d="M 180.5,160.5 C 202.253,165.986 223.92,172.819 245.5,181C 254.51,202.508 263.344,224.008 272,245.5C 272.991,247.447 273.325,249.447 273,251.5C 242.604,220.603 211.77,190.269 180.5,160.5 Z"/></g>
<g><path style="opacity:1" fill="#9e55c2" d="M 363.5,201.5 C 361.467,199.817 359.134,198.65 356.5,198C 357.833,197.667 359.167,197.333 360.5,197C 356.5,194.667 352.5,192.333 348.5,190C 349.833,189.667 351.167,189.333 352.5,189C 348.5,186.667 344.5,184.333 340.5,182C 341.833,181.667 343.167,181.333 344.5,181C 340.5,178.667 336.5,176.333 332.5,174C 337.721,173.458 337.721,172.624 332.5,171.5C 331.167,170.167 329.833,168.833 328.5,167.5C 328.863,166.817 329.196,166.15 329.5,165.5C 357.451,160.452 385.451,155.952 413.5,152C 396.965,168.702 380.299,185.202 363.5,201.5 Z"/></g>
<g><path style="opacity:1" fill="#a35cc6" d="M 329.5,165.5 C 329.196,166.15 328.863,166.817 328.5,167.5C 329.833,168.833 331.167,170.167 332.5,171.5C 337.721,172.624 337.721,173.458 332.5,174C 336.5,176.333 340.5,178.667 344.5,181C 343.167,181.333 341.833,181.667 340.5,182C 344.5,184.333 348.5,186.667 352.5,189C 351.167,189.333 349.833,189.667 348.5,190C 352.5,192.333 356.5,194.667 360.5,197C 359.167,197.333 357.833,197.667 356.5,198C 359.134,198.65 361.467,199.817 363.5,201.5C 357.833,207.833 351.833,213.833 345.5,219.5C 343.146,219.162 340.813,218.662 338.5,218C 339.833,217.667 341.167,217.333 342.5,217C 339.833,216 337.167,215 334.5,214C 335.833,213.667 337.167,213.333 338.5,213C 335.833,212 333.167,211 330.5,210C 331.833,209.667 333.167,209.333 334.5,209C 331.833,208 329.167,207 326.5,206C 327.833,205.667 329.167,205.333 330.5,205C 327.833,204 325.167,203 322.5,202C 323.833,201.667 325.167,201.333 326.5,201C 323.833,200 321.167,199 318.5,198C 319.833,197.667 321.167,197.333 322.5,197C 319.833,196 317.167,195 314.5,194C 315.833,193.667 317.167,193.333 318.5,193C 315.833,192 313.167,191 310.5,190C 311.833,189.667 313.167,189.333 314.5,189C 311.833,188 309.167,187 306.5,186C 307.833,185.667 309.167,185.333 310.5,185C 307.833,184 305.167,183 302.5,182C 303.833,181.667 305.167,181.333 306.5,181C 303.833,180 301.167,179 298.5,178C 299.833,177.667 301.167,177.333 302.5,177C 299.833,176 297.167,175 294.5,174C 295.833,173.667 297.167,173.333 298.5,173C 296.942,172.79 295.609,172.29 294.5,171.5C 305.954,169.013 317.62,167.013 329.5,165.5 Z"/></g>
<g><path style="opacity:1" fill="#a761c9" d="M 294.5,171.5 C 295.609,172.29 296.942,172.79 298.5,173C 297.167,173.333 295.833,173.667 294.5,174C 297.167,175 299.833,176 302.5,177C 301.167,177.333 299.833,177.667 298.5,178C 301.167,179 303.833,180 306.5,181C 305.167,181.333 303.833,181.667 302.5,182C 305.167,183 307.833,184 310.5,185C 309.167,185.333 307.833,185.667 306.5,186C 309.167,187 311.833,188 314.5,189C 313.167,189.333 311.833,189.667 310.5,190C 313.167,191 315.833,192 318.5,193C 317.167,193.333 315.833,193.667 314.5,194C 317.167,195 319.833,196 322.5,197C 321.167,197.333 319.833,197.667 318.5,198C 321.167,199 323.833,200 326.5,201C 325.167,201.333 323.833,201.667 322.5,202C 325.167,203 327.833,204 330.5,205C 329.167,205.333 327.833,205.667 326.5,206C 329.167,207 331.833,208 334.5,209C 333.167,209.333 331.833,209.667 330.5,210C 333.167,211 335.833,212 338.5,213C 337.167,213.333 335.833,213.667 334.5,214C 337.167,215 339.833,216 342.5,217C 341.167,217.333 339.833,217.667 338.5,218C 340.813,218.662 343.146,219.162 345.5,219.5C 339.833,225.833 333.833,231.833 327.5,237.5C 324.526,236.349 321.526,235.183 318.5,234C 319.167,233.667 319.833,233.333 320.5,233C 318.774,231.47 316.774,230.47 314.5,230C 315.833,229.667 317.167,229.333 318.5,229C 315.833,228 313.167,227 310.5,226C 311.167,225.667 311.833,225.333 312.5,225C 310.774,223.47 308.774,222.47 306.5,222C 307.833,221.667 309.167,221.333 310.5,221C 307.833,220 305.167,219 302.5,218C 303.167,217.667 303.833,217.333 304.5,217C 302.774,215.47 300.774,214.47 298.5,214C 299.833,213.667 301.167,213.333 302.5,213C 299.833,212 297.167,211 294.5,210C 295.167,209.667 295.833,209.333 296.5,209C 294.774,207.47 292.774,206.47 290.5,206C 291.833,205.667 293.167,205.333 294.5,205C 291.833,204 289.167,203 286.5,202C 287.167,201.667 287.833,201.333 288.5,201C 286.774,199.47 284.774,198.47 282.5,198C 283.833,197.667 285.167,197.333 286.5,197C 283.833,196 281.167,195 278.5,194C 279.167,193.667 279.833,193.333 280.5,193C 278.774,191.47 276.774,190.47 274.5,190C 275.833,189.667 277.167,189.333 278.5,189C 275.833,188 273.167,187 270.5,186C 271.167,185.667 271.833,185.333 272.5,185C 270.774,183.47 268.774,182.47 266.5,182C 267.833,181.667 269.167,181.333 270.5,181C 267.833,180 265.167,179 262.5,178C 264.852,177.76 266.852,176.927 268.5,175.5C 277.065,173.74 285.731,172.406 294.5,171.5 Z"/></g>
<g><path style="opacity:1" fill="#ab68cc" d="M 268.5,175.5 C 266.852,176.927 264.852,177.76 262.5,178C 265.167,179 267.833,180 270.5,181C 269.167,181.333 267.833,181.667 266.5,182C 268.774,182.47 270.774,183.47 272.5,185C 271.833,185.333 271.167,185.667 270.5,186C 273.167,187 275.833,188 278.5,189C 277.167,189.333 275.833,189.667 274.5,190C 276.774,190.47 278.774,191.47 280.5,193C 279.833,193.333 279.167,193.667 278.5,194C 281.167,195 283.833,196 286.5,197C 285.167,197.333 283.833,197.667 282.5,198C 284.774,198.47 286.774,199.47 288.5,201C 287.833,201.333 287.167,201.667 286.5,202C 289.167,203 291.833,204 294.5,205C 293.167,205.333 291.833,205.667 290.5,206C 292.774,206.47 294.774,207.47 296.5,209C 295.833,209.333 295.167,209.667 294.5,210C 297.167,211 299.833,212 302.5,213C 301.167,213.333 299.833,213.667 298.5,214C 300.774,214.47 302.774,215.47 304.5,217C 303.833,217.333 303.167,217.667 302.5,218C 305.167,219 307.833,220 310.5,221C 309.167,221.333 307.833,221.667 306.5,222C 308.774,222.47 310.774,223.47 312.5,225C 311.833,225.333 311.167,225.667 310.5,226C 313.167,227 315.833,228 318.5,229C 317.167,229.333 315.833,229.667 314.5,230C 316.774,230.47 318.774,231.47 320.5,233C 319.833,233.333 319.167,233.667 318.5,234C 321.526,235.183 324.526,236.349 327.5,237.5C 315.895,248.604 304.395,259.937 293,271.5C 280.256,240.426 267.422,209.426 254.5,178.5C 259.02,176.857 263.687,175.857 268.5,175.5 Z"/></g>
<g><path style="opacity:1" fill="#a45dc7" d="M 386.5,186.5 C 386.782,187.778 387.449,188.778 388.5,189.5C 361.833,216.833 334.833,243.833 307.5,270.5C 305.833,270.5 304.167,270.5 302.5,270.5C 330.167,242.167 358.167,214.167 386.5,186.5 Z"/></g>
<g><path style="opacity:1" fill="#242424" d="M 97.5,331.5 C 99.8454,332.988 100.179,334.988 98.5,337.5C 81.1583,339.325 73.9916,331.659 77,314.5C 80.4265,304.865 87.2598,301.031 97.5,303C 99.6044,304.836 99.9377,307.002 98.5,309.5C 86.0207,307.488 81.1873,312.821 84,325.5C 84.7065,327.081 85.5399,328.581 86.5,330C 90.0257,331.337 93.6924,331.837 97.5,331.5 Z"/></g>
<g><path style="opacity:1" fill="#262626" d="M 112.5,302.5 C 121.234,301.281 127.4,304.614 131,312.5C 131.851,318.253 131.517,323.92 130,329.5C 128.73,333.77 125.896,336.27 121.5,337C 111.1,339.654 104.6,335.821 102,325.5C 99.6525,315.004 103.153,307.337 112.5,302.5 Z"/></g>
<g><path style="opacity:1" fill="#212121" d="M 171.5,336.5 C 169.5,336.5 167.5,336.5 165.5,336.5C 165.666,328.826 165.5,321.159 165,313.5C 164.283,314.044 163.783,314.711 163.5,315.5C 161.437,320.85 159.271,326.183 157,331.5C 154.959,332.423 152.792,332.756 150.5,332.5C 148.7,327.101 146.7,321.768 144.5,316.5C 144.217,315.711 143.717,315.044 143,314.5C 142.5,321.826 142.334,329.159 142.5,336.5C 140.5,336.5 138.5,336.5 136.5,336.5C 136.5,325.5 136.5,314.5 136.5,303.5C 139.572,303.183 142.572,303.516 145.5,304.5C 148.609,311.051 151.442,317.718 154,324.5C 156.667,317.833 159.333,311.167 162,304.5C 165.057,303.549 168.223,303.216 171.5,303.5C 171.5,314.5 171.5,325.5 171.5,336.5 Z"/></g>
<g><path style="opacity:1" fill="#262626" d="M 179.5,302.5 C 186.221,301.751 192.554,302.918 198.5,306C 204.812,320.198 200.145,327.365 184.5,327.5C 184.5,330.833 184.5,334.167 184.5,337.5C 182.167,337.5 179.833,337.5 177.5,337.5C 176.888,325.581 177.554,313.914 179.5,302.5 Z"/></g>
<g><path style="opacity:1" fill="#242424" d="M 205.5,303.5 C 207.833,303.5 210.167,303.5 212.5,303.5C 212.334,311.507 212.5,319.507 213,327.5C 215.053,331.292 218.219,332.458 222.5,331C 223.667,330.5 224.5,329.667 225,328.5C 225.5,320.173 225.666,311.84 225.5,303.5C 227.833,303.5 230.167,303.5 232.5,303.5C 232.666,312.173 232.5,320.84 232,329.5C 229.877,335.729 225.544,338.396 219,337.5C 212.255,337.962 207.921,334.962 206,328.5C 205.5,320.173 205.334,311.84 205.5,303.5 Z"/></g>
<g><path style="opacity:1" fill="#202020" d="M 235.5,303.5 C 244.5,303.5 253.5,303.5 262.5,303.5C 262.5,305.5 262.5,307.5 262.5,309.5C 259.167,309.5 255.833,309.5 252.5,309.5C 252.5,318.833 252.5,328.167 252.5,337.5C 250.167,337.5 247.833,337.5 245.5,337.5C 245.5,328.167 245.5,318.833 245.5,309.5C 242.167,309.5 238.833,309.5 235.5,309.5C 235.5,307.5 235.5,305.5 235.5,303.5 Z"/></g>
<g><path style="opacity:1" fill="#6a6a6a" d="M 266.5,303.5 C 266.5,314.5 266.5,325.5 266.5,336.5C 273.833,336.5 281.167,336.5 288.5,336.5C 281.018,337.492 273.352,337.825 265.5,337.5C 265.172,325.988 265.505,314.654 266.5,303.5 Z"/></g>
<g><path style="opacity:1" fill="#1e1f1e" d="M 266.5,303.5 C 273.5,303.5 280.5,303.5 287.5,303.5C 287.5,305.167 287.5,306.833 287.5,308.5C 282.305,308.179 277.305,308.513 272.5,309.5C 272.5,312.167 272.5,314.833 272.5,317.5C 276.833,317.5 281.167,317.5 285.5,317.5C 285.5,319.167 285.5,320.833 285.5,322.5C 281.167,322.5 276.833,322.5 272.5,322.5C 272.5,325.5 272.5,328.5 272.5,331.5C 277.833,331.5 283.167,331.5 288.5,331.5C 288.5,333.167 288.5,334.833 288.5,336.5C 281.167,336.5 273.833,336.5 266.5,336.5C 266.5,325.5 266.5,314.5 266.5,303.5 Z"/></g>
<g><path style="opacity:1" fill="#242424" d="M 303.5,325.5 C 302.432,324.566 301.099,324.232 299.5,324.5C 299.5,328.5 299.5,332.5 299.5,336.5C 297.5,336.5 295.5,336.5 293.5,336.5C 293.19,325.419 293.523,314.419 294.5,303.5C 302.726,301.094 309.892,302.76 316,308.5C 318.01,315.197 316.177,320.364 310.5,324C 313.5,328.333 316.5,332.667 319.5,337C 316.773,337.818 314.106,337.652 311.5,336.5C 309.057,332.589 306.39,328.922 303.5,325.5 Z"/></g>
<g><path style="opacity:1" fill="#272727" d="M 340.5,302.5 C 344.437,302.207 348.27,302.54 352,303.5C 352.667,305.5 352.667,307.5 352,309.5C 348.591,308.378 345.091,308.211 341.5,309C 339.424,310.884 339.09,313.051 340.5,315.5C 345.079,316.683 349.246,318.683 353,321.5C 355.215,326.325 354.715,330.825 351.5,335C 345.356,337.695 339.023,338.195 332.5,336.5C 332.201,334.396 332.534,332.396 333.5,330.5C 337.442,331.6 341.442,331.767 345.5,331C 347.602,329.267 347.935,327.267 346.5,325C 339.829,324.428 334.996,321.261 332,315.5C 331.319,308.86 334.153,304.527 340.5,302.5 Z"/></g>
<g><path style="opacity:1" fill="#292929" d="M 369.5,302.5 C 373.548,302.395 377.548,302.728 381.5,303.5C 381.5,305.5 381.5,307.5 381.5,309.5C 367.727,306.973 362.561,312.64 366,326.5C 366.785,328.286 367.951,329.786 369.5,331C 373.537,331.607 377.537,331.44 381.5,330.5C 382.84,336.493 380.507,338.827 374.5,337.5C 365.462,338.241 359.962,334.241 358,325.5C 355.509,314.481 359.342,306.814 369.5,302.5 Z"/></g>
<g><path style="opacity:1" fill="#767676" d="M 385.5,303.5 C 385.5,314.5 385.5,325.5 385.5,336.5C 387.5,336.5 389.5,336.5 391.5,336.5C 391.5,325.5 391.5,314.5 391.5,303.5C 392.495,314.654 392.828,325.988 392.5,337.5C 389.833,337.5 387.167,337.5 384.5,337.5C 384.172,325.988 384.505,314.654 385.5,303.5 Z"/></g>
<g><path style="opacity:1" fill="#1e1f1e" d="M 385.5,303.5 C 387.5,303.5 389.5,303.5 391.5,303.5C 391.5,314.5 391.5,325.5 391.5,336.5C 389.5,336.5 387.5,336.5 385.5,336.5C 385.5,325.5 385.5,314.5 385.5,303.5 Z"/></g>
<g><path style="opacity:1" fill="#1e1f1e" d="M 398.5,303.5 C 405.5,303.5 412.5,303.5 419.5,303.5C 419.5,305.167 419.5,306.833 419.5,308.5C 414.305,308.179 409.305,308.513 404.5,309.5C 404.5,312.167 404.5,314.833 404.5,317.5C 408.833,317.5 413.167,317.5 417.5,317.5C 417.5,319.167 417.5,320.833 417.5,322.5C 413.167,322.5 408.833,322.5 404.5,322.5C 404.5,325.5 404.5,328.5 404.5,331.5C 409.5,331.5 414.5,331.5 419.5,331.5C 419.5,333.167 419.5,334.833 419.5,336.5C 412.5,336.5 405.5,336.5 398.5,336.5C 398.5,325.5 398.5,314.5 398.5,303.5 Z"/></g>
<g><path style="opacity:1" fill="#212121" d="M 451.5,303.5 C 451.5,314.5 451.5,325.5 451.5,336.5C 449.167,336.5 446.833,336.5 444.5,336.5C 440.403,329.296 436.07,322.296 431.5,315.5C 430.501,321.742 430.167,328.742 430.5,336.5C 428.5,336.5 426.5,336.5 424.5,336.5C 424.5,325.5 424.5,314.5 424.5,303.5C 427.247,303.187 429.914,303.52 432.5,304.5C 436.667,311.5 440.833,318.5 445,325.5C 445.5,318.174 445.666,310.841 445.5,303.5C 447.5,303.5 449.5,303.5 451.5,303.5 Z"/></g>
<g><path style="opacity:1" fill="#272727" d="M 468.5,302.5 C 471.85,302.335 475.183,302.502 478.5,303C 480.604,304.836 480.938,307.002 479.5,309.5C 473.673,307.33 468.839,308.663 465,313.5C 461.221,327.543 466.388,333.543 480.5,331.5C 480.5,333.5 480.5,335.5 480.5,337.5C 461.23,339.731 453.73,331.397 458,312.5C 460.106,307.557 463.606,304.224 468.5,302.5 Z"/></g>
<g><path style="opacity:1" fill="#242424" d="M 484.5,303.5 C 491.833,303.5 499.167,303.5 506.5,303.5C 506.5,305.5 506.5,307.5 506.5,309.5C 501.5,309.5 496.5,309.5 491.5,309.5C 491.5,312.167 491.5,314.833 491.5,317.5C 495.833,317.5 500.167,317.5 504.5,317.5C 504.5,319.167 504.5,320.833 504.5,322.5C 500.167,322.5 495.833,322.5 491.5,322.5C 491.5,325.5 491.5,328.5 491.5,331.5C 496.5,331.5 501.5,331.5 506.5,331.5C 506.5,333.5 506.5,335.5 506.5,337.5C 499.167,337.5 491.833,337.5 484.5,337.5C 484.5,326.167 484.5,314.833 484.5,303.5 Z"/></g>
<g><path style="opacity:1" fill="#5d5d5d" d="M 294.5,303.5 C 293.523,314.419 293.19,325.419 293.5,336.5C 295.5,336.5 297.5,336.5 299.5,336.5C 299.5,336.833 299.5,337.167 299.5,337.5C 297.167,337.5 294.833,337.5 292.5,337.5C 291.856,325.784 292.522,314.451 294.5,303.5 Z"/></g>
<g><path style="opacity:1" fill="#f8f8f8" d="M 184.5,308.5 C 194.09,308.072 196.757,312.072 192.5,320.5C 189.916,321.393 187.249,321.726 184.5,321.5C 184.5,317.167 184.5,312.833 184.5,308.5 Z"/></g>
<g><path style="opacity:1" fill="#555555" d="M 287.5,303.5 C 288.461,305.265 288.795,307.265 288.5,309.5C 283.5,309.5 278.5,309.5 273.5,309.5C 273.167,309.5 272.833,309.5 272.5,309.5C 277.305,308.513 282.305,308.179 287.5,308.5C 287.5,306.833 287.5,305.167 287.5,303.5 Z"/></g>
<g><path style="opacity:1" fill="#acacac" d="M 300.5,308.5 C 300.5,311.833 300.5,315.167 300.5,318.5C 302.5,318.5 304.5,318.5 306.5,318.5C 304.393,319.468 302.059,319.802 299.5,319.5C 299.185,315.629 299.518,311.962 300.5,308.5 Z"/></g>
<g><path style="opacity:1" fill="#f6f6f6" d="M 300.5,308.5 C 307.327,307.174 310.494,309.84 310,316.5C 309.184,317.823 308.017,318.489 306.5,318.5C 304.5,318.5 302.5,318.5 300.5,318.5C 300.5,315.167 300.5,311.833 300.5,308.5 Z"/></g>
<g><path style="opacity:1" fill="#5e5e5e" d="M 419.5,303.5 C 420.461,305.265 420.795,307.265 420.5,309.5C 415.5,309.5 410.5,309.5 405.5,309.5C 405.167,309.5 404.833,309.5 404.5,309.5C 409.305,308.513 414.305,308.179 419.5,308.5C 419.5,306.833 419.5,305.167 419.5,303.5 Z"/></g>
<g><path style="opacity:1" fill="#f4f4f4" d="M 114.5,308.5 C 119.048,308.199 122.215,310.199 124,314.5C 124.667,318.5 124.667,322.5 124,326.5C 121.565,331.224 117.731,332.724 112.5,331C 112,330.5 111.5,330 111,329.5C 109.561,324.238 109.228,318.904 110,313.5C 111.025,311.313 112.525,309.646 114.5,308.5 Z"/></g>
<g><path style="opacity:1" fill="#646464" d="M 171.5,336.5 C 169.393,337.468 167.059,337.802 164.5,337.5C 164.825,329.981 164.492,322.648 163.5,315.5C 163.783,314.711 164.283,314.044 165,313.5C 165.5,321.159 165.666,328.826 165.5,336.5C 167.5,336.5 169.5,336.5 171.5,336.5 Z"/></g>
<g><path style="opacity:1" fill="#585858" d="M 451.5,303.5 C 452.495,314.654 452.828,325.988 452.5,337.5C 449.615,337.806 446.948,337.473 444.5,336.5C 446.833,336.5 449.167,336.5 451.5,336.5C 451.5,325.5 451.5,314.5 451.5,303.5 Z"/></g>
<g><path style="opacity:1" fill="#7d7d7d" d="M 144.5,316.5 C 143.509,323.313 143.175,330.313 143.5,337.5C 140.941,337.802 138.607,337.468 136.5,336.5C 138.5,336.5 140.5,336.5 142.5,336.5C 142.334,329.159 142.5,321.826 143,314.5C 143.717,315.044 144.217,315.711 144.5,316.5 Z"/></g>
<g><path style="opacity:1" fill="#484848" d="M 431.5,315.5 C 431.5,322.833 431.5,330.167 431.5,337.5C 428.941,337.802 426.607,337.468 424.5,336.5C 426.5,336.5 428.5,336.5 430.5,336.5C 430.167,328.742 430.501,321.742 431.5,315.5 Z"/></g>
<g><path style="opacity:1" fill="#8c8c8c" d="M 272.5,309.5 C 272.833,309.5 273.167,309.5 273.5,309.5C 273.5,311.833 273.5,314.167 273.5,316.5C 277.702,316.183 281.702,316.517 285.5,317.5C 281.167,317.5 276.833,317.5 272.5,317.5C 272.5,314.833 272.5,312.167 272.5,309.5 Z"/></g>
<g><path style="opacity:1" fill="#999999" d="M 404.5,309.5 C 404.833,309.5 405.167,309.5 405.5,309.5C 405.5,311.833 405.5,314.167 405.5,316.5C 409.702,316.183 413.702,316.517 417.5,317.5C 413.167,317.5 408.833,317.5 404.5,317.5C 404.5,314.833 404.5,312.167 404.5,309.5 Z"/></g>
<g><path style="opacity:1" fill="#b3b3b3" d="M 303.5,325.5 C 302.5,325.5 301.5,325.5 300.5,325.5C 300.817,329.702 300.483,333.702 299.5,337.5C 299.5,337.167 299.5,336.833 299.5,336.5C 299.5,332.5 299.5,328.5 299.5,324.5C 301.099,324.232 302.432,324.566 303.5,325.5 Z"/></g>
<g><path style="opacity:1" fill="#b0b0b0" d="M 285.5,322.5 C 281.702,323.483 277.702,323.817 273.5,323.5C 273.5,325.833 273.5,328.167 273.5,330.5C 278.695,330.179 283.695,330.513 288.5,331.5C 283.167,331.5 277.833,331.5 272.5,331.5C 272.5,328.5 272.5,325.5 272.5,322.5C 276.833,322.5 281.167,322.5 285.5,322.5 Z"/></g>
<g><path style="opacity:1" fill="#bbbbbb" d="M 417.5,322.5 C 413.702,323.483 409.702,323.817 405.5,323.5C 405.5,325.833 405.5,328.167 405.5,330.5C 410.695,330.179 415.695,330.513 420.5,331.5C 420.167,331.5 419.833,331.5 419.5,331.5C 414.5,331.5 409.5,331.5 404.5,331.5C 404.5,328.5 404.5,325.5 404.5,322.5C 408.833,322.5 413.167,322.5 417.5,322.5 Z"/></g>
<g><path style="opacity:1" fill="#a3a3a3" d="M 97.5,331.5 C 98.209,330.596 99.209,330.263 100.5,330.5C 101.01,333.388 100.344,335.721 98.5,337.5C 100.179,334.988 99.8454,332.988 97.5,331.5 Z"/></g>
<g><path style="opacity:1" fill="#505050" d="M 398.5,303.5 C 398.5,314.5 398.5,325.5 398.5,336.5C 405.5,336.5 412.5,336.5 419.5,336.5C 419.5,334.833 419.5,333.167 419.5,331.5C 419.833,331.5 420.167,331.5 420.5,331.5C 420.5,333.5 420.5,335.5 420.5,337.5C 412.833,337.5 405.167,337.5 397.5,337.5C 397.172,325.988 397.505,314.654 398.5,303.5 Z"/></g>
</svg>
