<svg xmlns="http://www.w3.org/2000/svg" width="600" height="600" viewBox="0 0 600 600" version="1.1"><path d="M 221.252 185.255 L 151.005 255.511 221.503 326.003 L 292 396.495 362.500 326 L 433 255.505 362.753 185.253 L 292.505 115 292.002 115 L 291.498 115 221.252 185.255 M 224.219 188.783 L 156.938 255.500 224.545 323 L 292.152 390.500 359.033 323 L 425.915 255.500 359.210 188.750 L 292.506 122 292.003 122.033 L 291.500 122.066 224.219 188.783 M 225.546 190.954 L 161.598 254.908 163.049 255.432 L 164.500 255.956 206.869 269.525 L 249.239 283.094 249.475 282.797 L 249.711 282.500 266.451 217.500 L 283.191 152.500 286.523 139.750 L 289.855 127 289.675 127 L 289.494 127 225.546 190.954 M 293.603 131.049 L 293.114 132.500 274.408 205.768 L 255.702 279.035 256.294 279.627 L 256.886 280.220 335.193 267.052 L 413.500 253.885 415.258 253.192 L 417.016 252.500 355.554 191.049 L 294.092 129.598 293.603 131.049 M 224.554 198.463 L 169.608 252.709 174.554 254.302 L 179.500 255.895 212.414 266.484 L 245.328 277.072 246.074 276.286 L 246.819 275.500 252.480 253 L 258.140 230.500 269.124 187.637 L 280.108 144.775 279.804 144.496 L 279.500 144.216 224.554 198.463 M 225.513 320.013 L 287.414 381.920 287.652 381.682 L 287.889 381.444 268.692 333.654 L 249.494 285.864 222.997 277.333 L 196.500 268.803 180.056 263.454 L 163.611 258.105 225.513 320.013 M 333.500 274.241 L 256.500 287.274 256.050 287.671 L 255.599 288.067 273.962 333.784 L 292.324 379.500 292.980 380.268 L 293.636 381.036 354.068 321.070 L 414.500 261.104 412.500 261.156 L 410.500 261.209 333.500 274.241 M 189.507 277.823 L 198.500 286.646 236.830 324.573 L 275.161 362.500 273.045 357.123 L 270.929 351.745 258.804 321.623 L 246.679 291.500 245.590 290.325 L 244.500 289.150 213.201 279.075 L 181.903 269 181.208 269 L 180.514 269 189.507 277.823 M 84.985 414.250 L 80.546 416.500 78.698 419.720 L 76.851 422.940 76.814 429.334 L 76.777 435.728 78.495 439.348 L 80.213 442.968 83.550 445.031 L 86.888 447.094 93.694 446.797 L 100.500 446.500 100.500 443.545 L 100.500 440.591 95.465 440.858 L 90.429 441.125 87.802 439.059 L 85.174 436.992 84.518 433.109 L 83.862 429.225 84.990 425.037 L 86.118 420.849 89.362 419.493 L 92.607 418.138 96.803 418.700 L 101 419.263 101 416.248 L 101 413.233 98.750 412.630 L 96.500 412.027 92.962 412.014 L 89.424 412 84.985 414.250 M 110.256 413.588 L 107.012 415.244 104.756 418.872 L 102.500 422.500 102.523 429.500 L 102.545 436.500 104.289 440.044 L 106.032 443.588 108.920 445.294 L 111.809 447 117.154 446.996 L 122.500 446.993 125.580 445.114 L 128.660 443.236 130.330 439.717 L 132 436.198 131.998 429.849 L 131.997 423.500 130.248 420.071 L 128.500 416.642 125.824 414.681 L 123.149 412.721 118.324 412.326 L 113.500 411.932 110.256 413.588 M 179.750 412.689 L 178 413.147 178 430.073 L 178 447 181.500 447 L 185 447 185 442 L 185 437 188.750 436.998 L 192.500 436.997 195.986 435.248 L 199.472 433.500 200.721 431 L 201.971 428.500 201.982 424.500 L 201.993 420.500 200.048 417.311 L 198.104 414.123 194.302 413.067 L 190.500 412.011 186 412.122 L 181.500 412.232 179.750 412.689 M 295.250 412.706 L 293 413.139 293 430.130 L 293 447.121 296.750 446.810 L 300.500 446.500 300.798 440.250 L 301.095 434 302.430 434 L 303.765 434 308 440.500 L 312.235 447 316.117 447 L 320 447 320 446.538 L 320 446.075 315.634 439.860 L 311.268 433.645 314.100 431.262 L 316.932 428.879 317.569 425.483 L 318.206 422.087 316.353 418.293 L 314.500 414.500 311 413.306 L 307.500 412.113 302.500 412.193 L 297.500 412.272 295.250 412.706 M 338.001 413.752 L 334.502 415.500 333.156 418.335 L 331.809 421.170 332.424 424.448 L 333.039 427.725 334.909 429.417 L 336.778 431.109 341.620 432.947 L 346.462 434.785 347.423 436.309 L 348.384 437.832 346.971 439.535 L 345.557 441.238 339.279 440.734 L 333 440.230 333 443.096 L 333 445.962 335.536 446.599 L 338.073 447.235 344.187 446.793 L 350.302 446.351 352.651 443.620 L 355 440.888 355 437 L 355 433.112 352.750 430.587 L 350.500 428.062 345.500 426.254 L 340.500 424.446 340.181 422.224 L 339.861 420.003 342.593 418.965 L 345.325 417.926 349.662 418.577 L 354 419.227 354 416.230 L 354 413.233 351.750 412.630 L 349.500 412.027 345.500 412.015 L 341.500 412.003 338.001 413.752 M 366.301 414.080 L 362.102 416.159 360.051 420.395 L 358 424.631 358.002 430.066 L 358.003 435.500 359.752 438.980 L 361.500 442.460 364.959 444.771 L 368.417 447.082 374.959 446.791 L 381.500 446.500 381.801 443.413 L 382.102 440.327 376.624 440.781 L 371.145 441.236 368.572 438.663 L 366 436.091 366 430.101 L 366 424.112 368.415 421.306 L 370.829 418.500 376.415 418.738 L 382 418.976 382 416.095 L 382 413.214 380.418 412.607 L 378.836 412 374.668 412.001 L 370.500 412.002 366.301 414.080 M 467.604 413.038 L 464.709 413.905 461.960 416.538 L 459.212 419.171 457.976 423.586 L 456.740 428 457.226 432.314 L 457.712 436.628 459.106 439.526 L 460.500 442.425 463.898 444.713 L 467.296 447 474.148 447 L 481 447 481 443.595 L 481 440.190 477.060 440.719 L 473.121 441.247 470.579 440.609 L 468.036 439.971 466.518 437.035 L 465 434.099 465 430.115 L 465 426.130 465.994 423.517 L 466.987 420.903 470.362 419.493 L 473.737 418.083 477.368 418.672 L 481 419.262 481 416.238 L 481 413.214 479.418 412.607 L 477.836 412 474.168 412.086 L 470.500 412.172 467.604 413.038 M 137 429.945 L 137 447 140.466 447 L 143.932 447 144.216 436.324 L 144.500 425.647 147.871 433.824 L 151.242 442 154.478 442 L 157.714 442 161.107 433.250 L 164.500 424.500 164.783 435.750 L 165.066 447 168.533 447 L 172 447 172 429.945 L 172 412.890 167.428 413.195 L 162.855 413.500 159.011 422.834 L 155.166 432.167 154.721 432.613 L 154.276 433.058 150.217 423.279 L 146.159 413.500 141.579 413.195 L 137 412.890 137 429.945 M 206 425.032 L 206 437.064 207.394 440.401 L 208.789 443.739 211.117 445.369 L 213.445 447 219.707 447 L 225.968 447 229.234 444.085 L 232.500 441.169 232.826 427.085 L 233.151 413 229.576 413 L 226 413 226 424.777 L 226 436.555 224.443 438.777 L 222.887 441 220.015 441 L 217.143 441 215.571 439.429 L 214 437.857 214 425.429 L 214 413 210 413 L 206 413 206 425.032 M 236 416 L 236 419 241 419 L 246 419 246 433 L 246 447 249.500 447 L 253 447 253 433 L 253 419 258.500 419 L 264 419 264 416 L 264 413 250 413 L 236 413 236 416 M 266 430 L 266 447 277.500 447 L 289 447 289 444 L 289 441 281.500 441 L 274 441 274 437.048 L 274 433.095 280.250 432.798 L 286.500 432.500 286.500 429.500 L 286.500 426.500 280.250 426.202 L 274 425.905 274 422.452 L 274 419 281.500 419 L 289 419 289 416 L 289 413 277.500 413 L 266 413 266 430 M 385 430 L 385 447 389 447 L 393 447 393 430 L 393 413 389 413 L 385 413 385 430 M 398 430 L 398 447 409.500 447 L 421 447 421 444.042 L 421 441.084 413.250 440.792 L 405.500 440.500 405.190 436.750 L 404.879 433 411.440 433 L 418 433 418 429.500 L 418 426 411.500 426 L 405 426 405 422.500 L 405 419 413 419 L 421 419 421 416 L 421 413 409.500 413 L 398 413 398 430 M 425 430 L 425 447 428.466 447 L 431.932 447 432.216 436.273 L 432.500 425.547 439 436.270 L 445.500 446.994 449.250 446.997 L 453 447 453 430 L 453 413 449.534 413 L 446.068 413 445.784 423.748 L 445.500 434.496 439.143 423.748 L 432.786 413 428.893 413 L 425 413 425 430 M 485 430.033 L 485 447.066 496.250 446.783 L 507.500 446.500 507.816 443.750 L 508.133 441 500.066 441 L 492 441 492 437 L 492 433 498.500 433 L 505 433 505 429.500 L 505 426 498.500 426 L 492 426 492 422.500 L 492 419 499.500 419 L 507 419 507 416 L 507 413 496 413 L 485 413 485 430.033 M 115.008 418.975 L 112.516 419.586 111.273 422.043 L 110.029 424.500 110.015 429.185 L 110 433.870 111.063 436.665 L 112.125 439.459 113.313 440.214 L 114.500 440.969 117.727 440.985 L 120.954 441 122.727 438.294 L 124.500 435.587 124.428 429.319 L 124.355 423.050 122.613 421.125 L 120.870 419.199 119.185 418.782 L 117.500 418.364 115.008 418.975 M 185 424.500 L 185 431 188.345 431 L 191.690 431 193.345 429.171 L 195 427.343 195 424.671 L 195 422 193 420 L 191 418 188 418 L 185 418 185 424.500 M 301 422.933 L 301 427.865 302.868 428.458 L 304.736 429.051 307.282 428.083 L 309.829 427.115 310.497 425.008 L 311.166 422.902 309.560 420.451 L 307.954 418 304.477 418 L 301 418 301 422.933" stroke="none" fill="#a159c4" fill-rule="evenodd"/><path d="M 0 300.002 L 0 600.003 300.250 599.752 L 600.500 599.500 600.752 299.750 L 601.003 0 300.502 0 L 0 0 0 300.002 M 0.493 300.500 L 0.493 600.500 0.750 450.169 L 1.007 299.838 0.750 150.169 L 0.493 0.500 0.493 300.500 M 221.252 185.255 L 151.005 255.511 221.503 326.003 L 292 396.495 362.500 326 L 433 255.505 362.753 185.253 L 292.505 115 292.002 115 L 291.498 115 221.252 185.255 M 224.219 188.783 L 156.938 255.500 224.545 323 L 292.152 390.500 359.033 323 L 425.915 255.500 359.210 188.750 L 292.506 122 292.003 122.033 L 291.500 122.066 224.219 188.783 M 225.546 190.954 L 161.598 254.908 163.049 255.432 L 164.500 255.956 206.869 269.525 L 249.239 283.094 249.475 282.797 L 249.711 282.500 266.451 217.500 L 283.191 152.500 286.523 139.750 L 289.855 127 289.675 127 L 289.494 127 225.546 190.954 M 293.603 131.049 L 293.114 132.500 274.408 205.768 L 255.702 279.035 256.294 279.627 L 256.886 280.220 335.193 267.052 L 413.500 253.885 415.258 253.192 L 417.016 252.500 355.554 191.049 L 294.092 129.598 293.603 131.049 M 224.554 198.463 L 169.608 252.709 174.554 254.302 L 179.500 255.895 212.414 266.484 L 245.328 277.072 246.074 276.286 L 246.819 275.500 252.480 253 L 258.140 230.500 269.124 187.637 L 280.108 144.775 279.804 144.496 L 279.500 144.216 224.554 198.463 M 225.513 320.013 L 287.414 381.920 287.652 381.682 L 287.889 381.444 268.692 333.654 L 249.494 285.864 222.997 277.333 L 196.500 268.803 180.056 263.454 L 163.611 258.105 225.513 320.013 M 333.500 274.241 L 256.500 287.274 256.050 287.671 L 255.599 288.067 273.962 333.784 L 292.324 379.500 292.980 380.268 L 293.636 381.036 354.068 321.070 L 414.500 261.104 412.500 261.156 L 410.500 261.209 333.500 274.241 M 189.507 277.823 L 198.500 286.646 236.830 324.573 L 275.161 362.500 273.045 357.123 L 270.929 351.745 258.804 321.623 L 246.679 291.500 245.590 290.325 L 244.500 289.150 213.201 279.075 L 181.903 269 181.208 269 L 180.514 269 189.507 277.823 M 84.985 414.250 L 80.546 416.500 78.698 419.720 L 76.851 422.940 76.814 429.334 L 76.777 435.728 78.495 439.348 L 80.213 442.968 83.550 445.031 L 86.888 447.094 93.694 446.797 L 100.500 446.500 100.500 443.545 L 100.500 440.591 95.465 440.858 L 90.429 441.125 87.802 439.059 L 85.174 436.992 84.518 433.109 L 83.862 429.225 84.990 425.037 L 86.118 420.849 89.362 419.493 L 92.607 418.138 96.803 418.700 L 101 419.263 101 416.248 L 101 413.233 98.750 412.630 L 96.500 412.027 92.962 412.014 L 89.424 412 84.985 414.250 M 110.256 413.588 L 107.012 415.244 104.756 418.872 L 102.500 422.500 102.523 429.500 L 102.545 436.500 104.289 440.044 L 106.032 443.588 108.920 445.294 L 111.809 447 117.154 446.996 L 122.500 446.993 125.580 445.114 L 128.660 443.236 130.330 439.717 L 132 436.198 131.998 429.849 L 131.997 423.500 130.248 420.071 L 128.500 416.642 125.824 414.681 L 123.149 412.721 118.324 412.326 L 113.500 411.932 110.256 413.588 M 179.750 412.689 L 178 413.147 178 430.073 L 178 447 181.500 447 L 185 447 185 442 L 185 437 188.750 436.998 L 192.500 436.997 195.986 435.248 L 199.472 433.500 200.721 431 L 201.971 428.500 201.982 424.500 L 201.993 420.500 200.048 417.311 L 198.104 414.123 194.302 413.067 L 190.500 412.011 186 412.122 L 181.500 412.232 179.750 412.689 M 295.250 412.706 L 293 413.139 293 430.130 L 293 447.121 296.750 446.810 L 300.500 446.500 300.798 440.250 L 301.095 434 302.430 434 L 303.765 434 308 440.500 L 312.235 447 316.117 447 L 320 447 320 446.538 L 320 446.075 315.634 439.860 L 311.268 433.645 314.100 431.262 L 316.932 428.879 317.569 425.483 L 318.206 422.087 316.353 418.293 L 314.500 414.500 311 413.306 L 307.500 412.113 302.500 412.193 L 297.500 412.272 295.250 412.706 M 338.001 413.752 L 334.502 415.500 333.156 418.335 L 331.809 421.170 332.424 424.448 L 333.039 427.725 334.909 429.417 L 336.778 431.109 341.620 432.947 L 346.462 434.785 347.423 436.309 L 348.384 437.832 346.971 439.535 L 345.557 441.238 339.279 440.734 L 333 440.230 333 443.096 L 333 445.962 335.536 446.599 L 338.073 447.235 344.187 446.793 L 350.302 446.351 352.651 443.620 L 355 440.888 355 437 L 355 433.112 352.750 430.587 L 350.500 428.062 345.500 426.254 L 340.500 424.446 340.181 422.224 L 339.861 420.003 342.593 418.965 L 345.325 417.926 349.662 418.577 L 354 419.227 354 416.230 L 354 413.233 351.750 412.630 L 349.500 412.027 345.500 412.015 L 341.500 412.003 338.001 413.752 M 366.301 414.080 L 362.102 416.159 360.051 420.395 L 358 424.631 358.002 430.066 L 358.003 435.500 359.752 438.980 L 361.500 442.460 364.959 444.771 L 368.417 447.082 374.959 446.791 L 381.500 446.500 381.801 443.413 L 382.102 440.327 376.624 440.781 L 371.145 441.236 368.572 438.663 L 366 436.091 366 430.101 L 366 424.112 368.415 421.306 L 370.829 418.500 376.415 418.738 L 382 418.976 382 416.095 L 382 413.214 380.418 412.607 L 378.836 412 374.668 412.001 L 370.500 412.002 366.301 414.080 M 467.604 413.038 L 464.709 413.905 461.960 416.538 L 459.212 419.171 457.976 423.586 L 456.740 428 457.226 432.314 L 457.712 436.628 459.106 439.526 L 460.500 442.425 463.898 444.713 L 467.296 447 474.148 447 L 481 447 481 443.595 L 481 440.190 477.060 440.719 L 473.121 441.247 470.579 440.609 L 468.036 439.971 466.518 437.035 L 465 434.099 465 430.115 L 465 426.130 465.994 423.517 L 466.987 420.903 470.362 419.493 L 473.737 418.083 477.368 418.672 L 481 419.262 481 416.238 L 481 413.214 479.418 412.607 L 477.836 412 474.168 412.086 L 470.500 412.172 467.604 413.038 M 137 429.945 L 137 447 140.466 447 L 143.932 447 144.216 436.324 L 144.500 425.647 147.871 433.824 L 151.242 442 154.478 442 L 157.714 442 161.107 433.250 L 164.500 424.500 164.783 435.750 L 165.066 447 168.533 447 L 172 447 172 429.945 L 172 412.890 167.428 413.195 L 162.855 413.500 159.011 422.834 L 155.166 432.167 154.721 432.613 L 154.276 433.058 150.217 423.279 L 146.159 413.500 141.579 413.195 L 137 412.890 137 429.945 M 206 425.032 L 206 437.064 207.394 440.401 L 208.789 443.739 211.117 445.369 L 213.445 447 219.707 447 L 225.968 447 229.234 444.085 L 232.500 441.169 232.826 427.085 L 233.151 413 229.576 413 L 226 413 226 424.777 L 226 436.555 224.443 438.777 L 222.887 441 220.015 441 L 217.143 441 215.571 439.429 L 214 437.857 214 425.429 L 214 413 210 413 L 206 413 206 425.032 M 236 416 L 236 419 241 419 L 246 419 246 433 L 246 447 249.500 447 L 253 447 253 433 L 253 419 258.500 419 L 264 419 264 416 L 264 413 250 413 L 236 413 236 416 M 266 430 L 266 447 277.500 447 L 289 447 289 444 L 289 441 281.500 441 L 274 441 274 437.048 L 274 433.095 280.250 432.798 L 286.500 432.500 286.500 429.500 L 286.500 426.500 280.250 426.202 L 274 425.905 274 422.452 L 274 419 281.500 419 L 289 419 289 416 L 289 413 277.500 413 L 266 413 266 430 M 385 430 L 385 447 389 447 L 393 447 393 430 L 393 413 389 413 L 385 413 385 430 M 398 430 L 398 447 409.500 447 L 421 447 421 444.042 L 421 441.084 413.250 440.792 L 405.500 440.500 405.190 436.750 L 404.879 433 411.440 433 L 418 433 418 429.500 L 418 426 411.500 426 L 405 426 405 422.500 L 405 419 413 419 L 421 419 421 416 L 421 413 409.500 413 L 398 413 398 430 M 425 430 L 425 447 428.466 447 L 431.932 447 432.216 436.273 L 432.500 425.547 439 436.270 L 445.500 446.994 449.250 446.997 L 453 447 453 430 L 453 413 449.534 413 L 446.068 413 445.784 423.748 L 445.500 434.496 439.143 423.748 L 432.786 413 428.893 413 L 425 413 425 430 M 485 430.033 L 485 447.066 496.250 446.783 L 507.500 446.500 507.816 443.750 L 508.133 441 500.066 441 L 492 441 492 437 L 492 433 498.500 433 L 505 433 505 429.500 L 505 426 498.500 426 L 492 426 492 422.500 L 492 419 499.500 419 L 507 419 507 416 L 507 413 496 413 L 485 413 485 430.033 M 115.008 418.975 L 112.516 419.586 111.273 422.043 L 110.029 424.500 110.015 429.185 L 110 433.870 111.063 436.665 L 112.125 439.459 113.313 440.214 L 114.500 440.969 117.727 440.985 L 120.954 441 122.727 438.294 L 124.500 435.587 124.428 429.319 L 124.355 423.050 122.613 421.125 L 120.870 419.199 119.185 418.782 L 117.500 418.364 115.008 418.975 M 185 424.500 L 185 431 188.345 431 L 191.690 431 193.345 429.171 L 195 427.343 195 424.671 L 195 422 193 420 L 191 418 188 418 L 185 418 185 424.500 M 301 422.933 L 301 427.865 302.868 428.458 L 304.736 429.051 307.282 428.083 L 309.829 427.115 310.497 425.008 L 311.166 422.902 309.560 420.451 L 307.954 418 304.477 418 L 301 418 301 422.933" stroke="none" fill="#fbfbfb" fill-rule="evenodd"/></svg>