<?xml version="1.0" encoding="utf-8"?>
<!-- Tiling of a 5x8 square using tetrominoes.-->  
<!DOCTYPE svg PUBLIC "-//W3C//DTD SVG 1.1//EN" "http://www.w3.org/Graphics/SVG/1.1/DTD/svg11.dtd">
<svg version= "1.1" 
     id     = "Tetromino_Tiling_5x8" 
     xmlns  = "http://www.w3.org/2000/svg" 
     width  = "90" 
     height = "60">
<path stroke="#000" stroke-width="0.3" fill="none" 
   d="M5,15h80 v10h-80 v10h80 v10h-80 M15,5v50 h10v-50 h10v50 h10v-50 h10v50 h10v-50 h10v50"/>          
<g stroke="#000" fill-opacity="0.7" stroke-width="1">
   <path fill="#F80" d="M5,5h10v20h10v10h-20z"/>
   <path fill="#4F4" d="M15,5h10v10h10v20h-10v-10h-10z"/>
   <path fill="#4FF" d="M25,5h40v10h-40z"/>
   <path fill="#F4F" d="M35,15h30v10h-10v10h-10v-10h-10z"/>
   <path fill="#FF4" d="M65,5h20v20h-20z"/>
   <path fill="#FF8" d="M5,35h20v20h-20z"/>
   <path fill="#F8F" d="M35,25h10v10h10v10h-30v-10h10z"/>
   <path fill="#8FF" d="M25,45h40v10h-40z"/>
   <path fill="#8F8" d="M55,35h20v10h10v10h-20v-10h-10z"/>
   <path fill="#F82" d="M55,25h30v20h-10v-10h-20z"/>
</g>

</svg>
